#
#
#

mtllib Sphere.mtl


#
# Sphere 메시
#
g Sphere 메시

v 0.000000 1.000000 0.000000
v 0.360720 0.932680 0.000000
v 0.111480 0.932680 -0.343080
v 0.672880 0.739740 0.000000
v 0.479500 0.805420 -0.348380
v 0.207940 0.739740 -0.639940
v 0.894420 0.447220 0.000000
v 0.784360 0.516800 -0.343080
v 0.568660 0.516800 -0.639940
v 0.276400 0.447220 -0.850660
v -0.291840 0.932680 -0.212040
v -0.183160 0.805420 -0.563700
v -0.544380 0.739740 -0.395520
v -0.083900 0.516800 -0.851980
v -0.432900 0.516800 -0.738580
v -0.723600 0.447220 -0.525740
v -0.291840 0.932680 0.212040
v -0.592700 0.805420 0.000000
v -0.544380 0.739740 0.395520
v -0.836200 0.516800 -0.183480
v -0.836200 0.516800 0.183480
v -0.723600 0.447220 0.525740
v 0.111480 0.932680 0.343080
v -0.183160 0.805420 0.563700
v 0.207940 0.739740 0.639940
v -0.432900 0.516800 0.738580
v -0.083900 0.516800 0.851980
v 0.276400 0.447220 0.850660
v 0.479500 0.805420 0.348380
v 0.568660 0.516800 0.639940
v 0.784360 0.516800 0.343080
v 0.964720 0.156080 0.212040
v 0.964720 0.156080 -0.212040
v 0.905100 -0.156080 0.395520
v 0.985460 -0.169940 0.000000
v 0.905100 -0.156080 -0.395520
v 0.723600 -0.447220 0.525740
v 0.836200 -0.516800 0.183480
v 0.836200 -0.516800 -0.183480
v 0.723600 -0.447220 -0.525740
v 0.499760 0.156080 -0.851980
v 0.096460 0.156080 -0.983020
v 0.655840 -0.156080 -0.738580
v 0.304520 -0.169940 -0.937220
v -0.096460 -0.156080 -0.983020
v 0.432900 -0.516800 -0.738580
v 0.083900 -0.516800 -0.851980
v -0.276400 -0.447220 -0.850660
v -0.655840 0.156080 -0.738580
v -0.905100 0.156080 -0.395520
v -0.499760 -0.156080 -0.851980
v -0.797260 -0.169940 -0.579240
v -0.964720 -0.156080 -0.212040
v -0.568660 -0.516800 -0.639940
v -0.784360 -0.516800 -0.343080
v -0.894420 -0.447220 0.000000
v -0.905100 0.156080 0.395520
v -0.655840 0.156080 0.738580
v -0.964720 -0.156080 0.212040
v -0.797260 -0.169940 0.579240
v -0.499760 -0.156080 0.851980
v -0.784360 -0.516800 0.343080
v -0.568660 -0.516800 0.639940
v -0.276400 -0.447220 0.850660
v 0.096460 0.156080 0.983020
v 0.499760 0.156080 0.851980
v -0.096460 -0.156080 0.983020
v 0.304520 -0.169940 0.937220
v 0.655840 -0.156080 0.738580
v 0.083900 -0.516800 0.851980
v 0.432900 -0.516800 0.738580
v 0.797260 0.169940 -0.579240
v -0.304520 0.169940 -0.937220
v -0.985460 0.169940 0.000000
v -0.304520 0.169940 0.937220
v 0.797260 0.169940 0.579240
v 0.000000 -1.000000 0.000000
v -0.111480 -0.932680 -0.343080
v 0.291840 -0.932680 -0.212040
v -0.207940 -0.739740 -0.639940
v 0.183160 -0.805420 -0.563700
v 0.544380 -0.739740 -0.395520
v -0.360720 -0.932680 0.000000
v -0.672880 -0.739740 0.000000
v -0.479500 -0.805420 -0.348380
v -0.111480 -0.932680 0.343080
v -0.207940 -0.739740 0.639940
v -0.479500 -0.805420 0.348380
v 0.291840 -0.932680 0.212040
v 0.544380 -0.739740 0.395520
v 0.183160 -0.805420 0.563700
v 0.592700 -0.805420 0.000000
vn 0.000004 1.000000 0.000000
vn 0.348500 0.937309 0.000000
vn 0.107703 0.937308 -0.331442
vn 0.678527 0.734576 0.000000
vn 0.487314 0.798228 -0.354059
vn 0.209691 0.734572 -0.645317
vn 0.894421 0.447227 0.000000
vn 0.787846 0.516053 -0.336136
vn 0.487314 0.798228 -0.354058
vn 0.563144 0.516050 -0.645415
vn 0.276401 0.447224 -0.850643
vn -0.281939 0.937311 -0.204838
vn -0.186131 0.798221 -0.572886
vn -0.548954 0.734562 -0.398834
vn -0.076236 0.516039 -0.853166
vn -0.439806 0.516029 -0.735041
vn -0.186131 0.798222 -0.572885
vn -0.723602 0.447215 -0.525736
vn -0.281939 0.937311 0.204838
vn -0.602366 0.798220 0.000000
vn -0.548954 0.734562 0.398834
vn -0.834964 0.516044 -0.191137
vn -0.834964 0.516044 0.191137
vn -0.723602 0.447216 0.525736
vn 0.107703 0.937308 0.331442
vn -0.186131 0.798222 0.572885
vn 0.209691 0.734572 0.645317
vn -0.439806 0.516029 0.735041
vn -0.186131 0.798221 0.572886
vn -0.076236 0.516039 0.853166
vn 0.276401 0.447224 0.850643
vn 0.487314 0.798228 0.354059
vn 0.563144 0.516050 0.645415
vn 0.787846 0.516053 0.336136
vn 0.964051 0.165675 0.207745
vn 0.964051 0.165675 -0.207745
vn 0.902041 -0.165688 0.398584
vn 0.983338 -0.181784 0.000000
vn 0.902041 -0.165688 -0.398584
vn 0.723602 -0.447216 0.525736
vn 0.834964 -0.516044 0.191137
vn 0.834964 -0.516044 -0.191137
vn 0.723602 -0.447216 -0.525736
vn 0.495491 0.165660 -0.852670
vn 0.100317 0.165659 -0.981068
vn 0.657805 -0.165678 -0.734741
vn 0.303872 -0.181768 -0.935212
vn -0.100317 -0.165658 -0.981068
vn 0.439806 -0.516029 -0.735041
vn 0.076236 -0.516039 -0.853166
vn -0.276401 -0.447224 -0.850643
vn -0.657805 0.165678 -0.734741
vn -0.902041 0.165688 -0.398584
vn -0.495492 -0.165660 -0.852669
vn -0.795530 -0.181764 -0.578009
vn -0.964051 -0.165675 -0.207745
vn -0.563144 -0.516050 -0.645415
vn -0.787846 -0.516053 -0.336136
vn -0.894421 -0.447227 0.000000
vn -0.723602 0.447215 0.525736
vn -0.902041 0.165688 0.398584
vn -0.657805 0.165678 0.734740
vn -0.964051 -0.165675 0.207745
vn -0.795530 -0.181764 0.578009
vn -0.495492 -0.165660 0.852669
vn -0.787846 -0.516053 0.336136
vn -0.563144 -0.516050 0.645415
vn -0.276401 -0.447224 0.850643
vn 0.100317 0.165659 0.981068
vn 0.495492 0.165660 0.852669
vn -0.100317 -0.165659 0.981068
vn 0.303872 -0.181769 0.935212
vn 0.657805 -0.165678 0.734741
vn 0.076236 -0.516039 0.853166
vn 0.439806 -0.516028 0.735041
vn 0.439806 -0.516029 0.735041
vn 0.795530 0.181764 -0.578009
vn 0.657805 -0.165678 -0.734740
vn -0.303872 0.181769 -0.935212
vn -0.983338 0.181784 0.000000
vn -0.303872 0.181769 0.935212
vn 0.795530 0.181764 0.578009
vn -0.000004 -1.000000 0.000000
vn -0.107703 -0.937308 -0.331442
vn 0.281939 -0.937311 -0.204838
vn -0.209691 -0.734572 -0.645317
vn 0.186131 -0.798221 -0.572886
vn 0.548954 -0.734562 -0.398834
vn 0.186131 -0.798222 -0.572885
vn 0.723602 -0.447215 -0.525736
vn -0.348500 -0.937309 -0.000000
vn -0.678527 -0.734576 0.000000
vn -0.487314 -0.798228 -0.354059
vn -0.487314 -0.798228 -0.354058
vn -0.107703 -0.937308 0.331442
vn -0.209691 -0.734572 0.645317
vn -0.487314 -0.798228 0.354059
vn 0.281939 -0.937311 0.204838
vn 0.548954 -0.734562 0.398834
vn 0.186131 -0.798222 0.572885
vn 0.723602 -0.447215 0.525736
vn 0.186131 -0.798221 0.572886
vn 0.602366 -0.798220 0.000000
vt 0.000000 0.000000
f 1/1/1 2/1/2 3/1/3
f 2/1/2 4/1/4 5/1/5
f 2/1/2 5/1/5 3/1/3
f 3/1/3 5/1/5 6/1/6
f 4/1/4 7/1/7 8/1/8
f 4/1/4 8/1/8 5/1/5
f 5/1/9 8/1/8 9/1/10
f 5/1/9 9/1/10 6/1/6
f 6/1/6 9/1/10 10/1/11
f 1/1/1 3/1/3 11/1/12
f 3/1/3 6/1/6 12/1/13
f 3/1/3 12/1/13 11/1/12
f 11/1/12 12/1/13 13/1/14
f 6/1/6 10/1/11 14/1/15
f 6/1/6 14/1/15 12/1/13
f 12/1/13 14/1/15 15/1/16
f 12/1/17 15/1/16 13/1/14
f 13/1/14 15/1/16 16/1/18
f 1/1/1 11/1/12 17/1/19
f 11/1/12 13/1/14 18/1/20
f 11/1/12 18/1/20 17/1/19
f 17/1/19 18/1/20 19/1/21
f 13/1/14 16/1/18 20/1/22
f 13/1/14 20/1/22 18/1/20
f 18/1/20 20/1/22 21/1/23
f 18/1/20 21/1/23 19/1/21
f 19/1/21 21/1/23 22/1/24
f 1/1/1 17/1/19 23/1/25
f 17/1/19 19/1/21 24/1/26
f 17/1/19 24/1/26 23/1/25
f 23/1/25 24/1/26 25/1/27
f 19/1/21 22/1/24 26/1/28
f 19/1/21 26/1/28 24/1/26
f 24/1/29 26/1/28 27/1/30
f 24/1/29 27/1/30 25/1/27
f 25/1/27 27/1/30 28/1/31
f 1/1/1 23/1/25 2/1/2
f 23/1/25 25/1/27 29/1/32
f 23/1/25 29/1/32 2/1/2
f 2/1/2 29/1/32 4/1/4
f 25/1/27 28/1/31 30/1/33
f 25/1/27 30/1/33 29/1/32
f 29/1/32 30/1/33 31/1/34
f 29/1/32 31/1/34 4/1/4
f 4/1/4 31/1/34 7/1/7
f 7/1/7 32/1/35 33/1/36
f 32/1/35 34/1/37 35/1/38
f 32/1/35 35/1/38 33/1/36
f 33/1/36 35/1/38 36/1/39
f 34/1/37 37/1/40 38/1/41
f 34/1/37 38/1/41 35/1/38
f 35/1/38 38/1/41 39/1/42
f 35/1/38 39/1/42 36/1/39
f 36/1/39 39/1/42 40/1/43
f 10/1/11 41/1/44 42/1/45
f 41/1/44 43/1/46 44/1/47
f 41/1/44 44/1/47 42/1/45
f 42/1/45 44/1/47 45/1/48
f 43/1/46 40/1/43 46/1/49
f 43/1/46 46/1/49 44/1/47
f 44/1/47 46/1/49 47/1/50
f 44/1/47 47/1/50 45/1/48
f 45/1/48 47/1/50 48/1/51
f 16/1/18 49/1/52 50/1/53
f 49/1/52 51/1/54 52/1/55
f 49/1/52 52/1/55 50/1/53
f 50/1/53 52/1/55 53/1/56
f 51/1/54 48/1/51 54/1/57
f 51/1/54 54/1/57 52/1/55
f 52/1/55 54/1/57 55/1/58
f 52/1/55 55/1/58 53/1/56
f 53/1/56 55/1/58 56/1/59
f 22/1/60 57/1/61 58/1/62
f 57/1/61 59/1/63 60/1/64
f 57/1/61 60/1/64 58/1/62
f 58/1/62 60/1/64 61/1/65
f 59/1/63 56/1/59 62/1/66
f 59/1/63 62/1/66 60/1/64
f 60/1/64 62/1/66 63/1/67
f 60/1/64 63/1/67 61/1/65
f 61/1/65 63/1/67 64/1/68
f 28/1/31 65/1/69 66/1/70
f 65/1/69 67/1/71 68/1/72
f 65/1/69 68/1/72 66/1/70
f 66/1/70 68/1/72 69/1/73
f 67/1/71 64/1/68 70/1/74
f 67/1/71 70/1/74 68/1/72
f 68/1/72 70/1/74 71/1/75
f 68/1/72 71/1/75 69/1/73
f 69/1/73 71/1/76 37/1/40
f 40/1/43 43/1/46 36/1/39
f 43/1/46 41/1/44 72/1/77
f 43/1/78 72/1/77 36/1/39
f 36/1/39 72/1/77 33/1/36
f 41/1/44 10/1/11 9/1/10
f 41/1/44 9/1/10 72/1/77
f 72/1/77 9/1/10 8/1/8
f 72/1/77 8/1/8 33/1/36
f 33/1/36 8/1/8 7/1/7
f 48/1/51 51/1/54 45/1/48
f 51/1/54 49/1/52 73/1/79
f 51/1/54 73/1/79 45/1/48
f 45/1/48 73/1/79 42/1/45
f 49/1/52 16/1/18 15/1/16
f 49/1/52 15/1/16 73/1/79
f 73/1/79 15/1/16 14/1/15
f 73/1/79 14/1/15 42/1/45
f 42/1/45 14/1/15 10/1/11
f 56/1/59 59/1/63 53/1/56
f 59/1/63 57/1/61 74/1/80
f 59/1/63 74/1/80 53/1/56
f 53/1/56 74/1/80 50/1/53
f 57/1/61 22/1/60 21/1/23
f 57/1/61 21/1/23 74/1/80
f 74/1/80 21/1/23 20/1/22
f 74/1/80 20/1/22 50/1/53
f 50/1/53 20/1/22 16/1/18
f 64/1/68 67/1/71 61/1/65
f 67/1/71 65/1/69 75/1/81
f 67/1/71 75/1/81 61/1/65
f 61/1/65 75/1/81 58/1/62
f 65/1/69 28/1/31 27/1/30
f 65/1/69 27/1/30 75/1/81
f 75/1/81 27/1/30 26/1/28
f 75/1/81 26/1/28 58/1/62
f 58/1/62 26/1/28 22/1/24
f 37/1/40 34/1/37 69/1/73
f 34/1/37 32/1/35 76/1/82
f 34/1/37 76/1/82 69/1/73
f 69/1/73 76/1/82 66/1/70
f 32/1/35 7/1/7 31/1/34
f 32/1/35 31/1/34 76/1/82
f 76/1/82 31/1/34 30/1/33
f 76/1/82 30/1/33 66/1/70
f 66/1/70 30/1/33 28/1/31
f 77/1/83 78/1/84 79/1/85
f 78/1/84 80/1/86 81/1/87
f 78/1/84 81/1/87 79/1/85
f 79/1/85 81/1/87 82/1/88
f 80/1/86 48/1/51 47/1/50
f 80/1/86 47/1/50 81/1/87
f 81/1/87 47/1/50 46/1/49
f 81/1/89 46/1/49 82/1/88
f 82/1/88 46/1/49 40/1/90
f 77/1/83 83/1/91 78/1/84
f 83/1/91 84/1/92 85/1/93
f 83/1/91 85/1/93 78/1/84
f 78/1/84 85/1/93 80/1/86
f 84/1/92 56/1/59 55/1/58
f 84/1/92 55/1/58 85/1/93
f 85/1/94 55/1/58 54/1/57
f 85/1/94 54/1/57 80/1/86
f 80/1/86 54/1/57 48/1/51
f 77/1/83 86/1/95 83/1/91
f 86/1/95 87/1/96 88/1/97
f 86/1/95 88/1/97 83/1/91
f 83/1/91 88/1/97 84/1/92
f 87/1/96 64/1/68 63/1/67
f 87/1/96 63/1/67 88/1/97
f 88/1/97 63/1/67 62/1/66
f 88/1/97 62/1/66 84/1/92
f 84/1/92 62/1/66 56/1/59
f 77/1/83 89/1/98 86/1/95
f 89/1/98 90/1/99 91/1/100
f 89/1/98 91/1/100 86/1/95
f 86/1/95 91/1/100 87/1/96
f 90/1/99 37/1/101 71/1/76
f 90/1/99 71/1/76 91/1/100
f 91/1/102 71/1/76 70/1/74
f 91/1/102 70/1/74 87/1/96
f 87/1/96 70/1/74 64/1/68
f 77/1/83 79/1/85 89/1/98
f 79/1/85 82/1/88 92/1/103
f 79/1/85 92/1/103 89/1/98
f 89/1/98 92/1/103 90/1/99
f 82/1/88 40/1/43 39/1/42
f 82/1/88 39/1/42 92/1/103
f 92/1/103 39/1/42 38/1/41
f 92/1/103 38/1/41 90/1/99
f 90/1/99 38/1/41 37/1/101
